<mxfile host="app.diagrams.net" modified="2021-11-18T14:21:06.139Z" agent="5.0 (Windows NT 10.0; Win64; x64) AppleWebKit/537.36 (KHTML, like Gecko) Chrome/96.0.4664.45 Safari/537.36" etag="J5ymlzRHQKHQhtbe-5A1" version="15.8.0" type="github">
  <diagram id="pDyUetdAAQLMD6045xFQ" name="Page-1">
    <mxGraphModel dx="2062" dy="1154" grid="1" gridSize="10" guides="1" tooltips="1" connect="1" arrows="1" fold="1" page="1" pageScale="1" pageWidth="850" pageHeight="1100" math="0" shadow="0">
      <root>
        <mxCell id="0" />
        <mxCell id="1" parent="0" />
        <mxCell id="V_4nySnlaSvJKYtQ2s8u-5" value="" style="edgeStyle=orthogonalEdgeStyle;rounded=0;orthogonalLoop=1;jettySize=auto;html=1;" edge="1" parent="1" source="V_4nySnlaSvJKYtQ2s8u-1" target="V_4nySnlaSvJKYtQ2s8u-2">
          <mxGeometry relative="1" as="geometry" />
        </mxCell>
        <mxCell id="V_4nySnlaSvJKYtQ2s8u-6" value="" style="edgeStyle=orthogonalEdgeStyle;rounded=0;orthogonalLoop=1;jettySize=auto;html=1;" edge="1" parent="1" source="V_4nySnlaSvJKYtQ2s8u-1" target="V_4nySnlaSvJKYtQ2s8u-3">
          <mxGeometry relative="1" as="geometry" />
        </mxCell>
        <mxCell id="V_4nySnlaSvJKYtQ2s8u-7" value="" style="edgeStyle=orthogonalEdgeStyle;rounded=0;orthogonalLoop=1;jettySize=auto;html=1;" edge="1" parent="1" source="V_4nySnlaSvJKYtQ2s8u-1" target="V_4nySnlaSvJKYtQ2s8u-4">
          <mxGeometry relative="1" as="geometry" />
        </mxCell>
        <mxCell id="V_4nySnlaSvJKYtQ2s8u-1" value="gsea_main.py&lt;br&gt;&lt;br&gt;-parser&lt;br&gt;- main functions that call the subroutines" style="rounded=0;whiteSpace=wrap;html=1;fillColor=#f5f5f5;fontColor=#333333;strokeColor=#666666;" vertex="1" parent="1">
          <mxGeometry x="340" y="30" width="130" height="100" as="geometry" />
        </mxCell>
        <mxCell id="V_4nySnlaSvJKYtQ2s8u-2" value="gsea_calc.py&lt;br&gt;&lt;br&gt;- calculate the NES for the rank files for all gene sets&lt;br&gt;(prerank() from gseapy)&lt;br&gt;&lt;br&gt;--&amp;gt; generate a dataframe of enrichment values called pre_res for each rank files and each gene sets" style="rounded=0;whiteSpace=wrap;html=1;fillColor=#f5f5f5;fontColor=#333333;strokeColor=#666666;" vertex="1" parent="1">
          <mxGeometry x="110" y="180" width="190" height="160" as="geometry" />
        </mxCell>
        <mxCell id="V_4nySnlaSvJKYtQ2s8u-3" value="gseap_select.py&lt;br&gt;&lt;br&gt;- reorder the pre_res dataframe by best NES values for each rank files and each genes sets" style="rounded=0;whiteSpace=wrap;html=1;fillColor=#f5f5f5;fontColor=#333333;strokeColor=#666666;" vertex="1" parent="1">
          <mxGeometry x="312.5" y="180" width="185" height="160" as="geometry" />
        </mxCell>
        <mxCell id="V_4nySnlaSvJKYtQ2s8u-4" value="enrichment_plot.py&lt;br&gt;&lt;br&gt;- take the best 20 NES value and generate the enrichment plot for each of them" style="rounded=0;whiteSpace=wrap;html=1;fillColor=#f5f5f5;fontColor=#333333;strokeColor=#666666;" vertex="1" parent="1">
          <mxGeometry x="520" y="180" width="190" height="160" as="geometry" />
        </mxCell>
      </root>
    </mxGraphModel>
  </diagram>
</mxfile>
